<svg width="413" height="295" viewBox="0 0 413 295" fill="none" xmlns="http://www.w3.org/2000/svg">
<path d="M145.5 2.99995C124.9 8.19995 108.6 14.8999 91.5 25.0999C33.7 59.4999 -2.6 125.7 0.299996 191.5C2.3 236.9 20.8 269.7 53.3 285.5C77.3 297.1 107.5 297.4 132.2 286.2C175.5 266.6 194.3 216.7 175.3 171.5C168.1 154.4 153.3 138 136 128.2C130.1 124.9 113.6 119 110.2 119C109 119 107.9 118.6 107.6 118.1C106.5 116.3 112 97.7999 116 89.7999C121.6 78.4999 127.4 70.7999 137.1 61.4999C146.7 52.2999 153.4 47.6999 165 41.9999C169.6 39.7999 173.5 37.8999 173.7 37.5999C174.1 37.1999 158.3 2.09995 157.1 0.799947C156.8 0.499947 151.6 1.39995 145.5 2.99995Z" fill="#f7f7f7"/>
<path d="M375.3 2.99995C327.6 15.4999 289.1 42.2999 262.9 81.3999C224.4 138.7 219.6 213.5 251.5 258.5C279 297.3 336.4 306.2 377 277.9C393.4 266.5 403.6 252.3 409.7 232.3C412.1 224.3 412.4 222 412.4 207.5C412.4 192.9 412.1 190.7 409.6 182.6C403.9 163.9 392.6 147.1 378.5 136.3C369.4 129.2 355.4 122.4 345.8 120.3C336.7 118.2 336.9 118.6 340.1 106.5C347.2 79.2 368.9 54.1999 396.4 41.3999C400.6 39.4999 404 37.4999 404 36.8999C404 35.4999 387.6 -5.32161e-05 387 0.0999468C386.7 0.0999468 381.4 1.39995 375.3 2.99995Z" fill="#f7f7f7"/>
</svg>
